<mxfile host="Electron" agent="Mozilla/5.0 (Macintosh; Intel Mac OS X 10_15_7) AppleWebKit/537.36 (KHTML, like Gecko) draw.io/26.0.9 Chrome/128.0.6613.186 Electron/32.2.5 Safari/537.36" version="26.0.9">
  <diagram name="go-stock业务流视角架构图" id="business-flow">
    <mxGraphModel dx="1578" dy="1038" grid="0" gridSize="10" guides="1" tooltips="1" connect="1" arrows="1" fold="1" page="1" pageScale="1" pageWidth="1800" pageHeight="1200" background="#ffffff" math="0" shadow="1">
      <root>
        <mxCell id="0" />
        <mxCell id="1" parent="0" />
        <mxCell id="user" value="User" style="rounded=1;whiteSpace=wrap;html=1;fillColor=#fff2cc;strokeColor=#d6b656;fontSize=18;fontStyle=1;" parent="1" vertex="1">
          <mxGeometry x="850" y="40" width="100" height="50" as="geometry" />
        </mxCell>
        <mxCell id="frontend" value="Frontend UI" style="rounded=1;whiteSpace=wrap;html=1;fillColor=#dae8fc;strokeColor=#6c8ebf;fontSize=16;" parent="1" vertex="1">
          <mxGeometry x="850" y="120" width="100" height="50" as="geometry" />
        </mxCell>
        <mxCell id="wails" value="Wails Bridge" style="rounded=1;whiteSpace=wrap;html=1;fillColor=#e1d5e7;strokeColor=#9673a6;fontSize=16;" parent="1" vertex="1">
          <mxGeometry x="850" y="200" width="100" height="50" as="geometry" />
        </mxCell>
        <mxCell id="backend" value="Go Backend" style="rounded=1;whiteSpace=wrap;html=1;fillColor=#d5e8d4;strokeColor=#82b366;fontSize=16;" parent="1" vertex="1">
          <mxGeometry x="850" y="280" width="120" height="60" as="geometry" />
        </mxCell>
        <mxCell id="stockdata" value="Stock Data System" style="rounded=1;whiteSpace=wrap;html=1;fillColor=#f8cecc;strokeColor=#b85450;fontSize=14;" parent="1" vertex="1">
          <mxGeometry x="300" y="400" width="160" height="50" as="geometry" />
        </mxCell>
        <mxCell id="funddata" value="Fund Data System" style="rounded=1;whiteSpace=wrap;html=1;fillColor=#f8cecc;strokeColor=#b85450;fontSize=14;" parent="1" vertex="1">
          <mxGeometry x="550" y="400" width="160" height="50" as="geometry" />
        </mxCell>
        <mxCell id="ai" value="AI Analysis System" style="rounded=1;whiteSpace=wrap;html=1;fillColor=#fff2cc;strokeColor=#d6b656;fontSize=14;" parent="1" vertex="1">
          <mxGeometry x="750" y="400" width="160" height="50" as="geometry" />
        </mxCell>
        <mxCell id="sqlite" value="SQLite Database" style="rounded=1;whiteSpace=wrap;html=1;fillColor=#e1d5e7;strokeColor=#9673a6;fontSize=14;" parent="1" vertex="1">
          <mxGeometry x="1000" y="400" width="160" height="50" as="geometry" />
        </mxCell>
        <mxCell id="notify" value="Notification System" style="rounded=1;whiteSpace=wrap;html=1;fillColor=#dae8fc;strokeColor=#6c8ebf;fontSize=14;" parent="1" vertex="1">
          <mxGeometry x="1250" y="400" width="160" height="50" as="geometry" />
        </mxCell>
        <mxCell id="task" value="Task Scheduler" style="rounded=1;whiteSpace=wrap;html=1;fillColor=#d5e8d4;strokeColor=#82b366;fontSize=14;" parent="1" vertex="1">
          <mxGeometry x="1530" y="390" width="160" height="50" as="geometry" />
        </mxCell>
        <mxCell id="external" value="External Data Sources" style="rounded=1;whiteSpace=wrap;html=1;fillColor=#fff2cc;strokeColor=#d6b656;fontSize=13;" parent="1" vertex="1">
          <mxGeometry x="300" y="500" width="160" height="40" as="geometry" />
        </mxCell>
        <mxCell id="tushare" value="Tushare API" style="rounded=1;whiteSpace=wrap;html=1;fillColor=#e1d5e7;strokeColor=#9673a6;fontSize=12;" parent="1" vertex="1">
          <mxGeometry x="230" y="580" width="100" height="35" as="geometry" />
        </mxCell>
        <mxCell id="sina" value="Sina Finance API" style="rounded=1;whiteSpace=wrap;html=1;fillColor=#e1d5e7;strokeColor=#9673a6;fontSize=12;" parent="1" vertex="1">
          <mxGeometry x="370" y="580" width="120" height="35" as="geometry" />
        </mxCell>
        <mxCell id="scraping" value="Web Scraping" style="rounded=1;whiteSpace=wrap;html=1;fillColor=#e1d5e7;strokeColor=#9673a6;fontSize=12;" parent="1" vertex="1">
          <mxGeometry x="520" y="580" width="110" height="35" as="geometry" />
        </mxCell>
        <mxCell id="llm" value="LLM Providers" style="rounded=1;whiteSpace=wrap;html=1;fillColor=#f8cecc;strokeColor=#b85450;fontSize=13;" parent="1" vertex="1">
          <mxGeometry x="750" y="500" width="160" height="40" as="geometry" />
        </mxCell>
        <mxCell id="openai" value="OpenAI" style="rounded=1;whiteSpace=wrap;html=1;fillColor=#e1d5e7;strokeColor=#9673a6;fontSize=12;" parent="1" vertex="1">
          <mxGeometry x="700" y="580" width="80" height="35" as="geometry" />
        </mxCell>
        <mxCell id="deepseek" value="DeepSeek" style="rounded=1;whiteSpace=wrap;html=1;fillColor=#e1d5e7;strokeColor=#9673a6;fontSize=12;" parent="1" vertex="1">
          <mxGeometry x="800" y="580" width="80" height="35" as="geometry" />
        </mxCell>
        <mxCell id="ollama" value="Ollama" style="rounded=1;whiteSpace=wrap;html=1;fillColor=#e1d5e7;strokeColor=#9673a6;fontSize=12;" parent="1" vertex="1">
          <mxGeometry x="900" y="580" width="80" height="35" as="geometry" />
        </mxCell>
        <mxCell id="otherllm" value="Other LLM Platforms" style="rounded=1;whiteSpace=wrap;html=1;fillColor=#e1d5e7;strokeColor=#9673a6;fontSize=12;" parent="1" vertex="1">
          <mxGeometry x="1000" y="580" width="140" height="35" as="geometry" />
        </mxCell>
        <mxCell id="dingding" value="DingDing" style="rounded=1;whiteSpace=wrap;html=1;fillColor=#fff2cc;strokeColor=#d6b656;fontSize=12;" parent="1" vertex="1">
          <mxGeometry x="1160" y="500" width="100" height="35" as="geometry" />
        </mxCell>
        <mxCell id="tray" value="System Tray" style="rounded=1;whiteSpace=wrap;html=1;fillColor=#d5e8d4;strokeColor=#82b366;fontSize=12;" parent="1" vertex="1">
          <mxGeometry x="1300" y="500" width="100" height="35" as="geometry" />
        </mxCell>
        <mxCell id="osnotify" value="OS Notifications" style="rounded=1;whiteSpace=wrap;html=1;fillColor=#d5e8d4;strokeColor=#82b366;fontSize=12;" parent="1" vertex="1">
          <mxGeometry x="1440" y="583" width="120" height="35" as="geometry" />
        </mxCell>
        <mxCell id="u2f" style="edgeStyle=orthogonalEdgeStyle;endArrow=block;html=1;strokeColor=#d6b656;" parent="1" source="user" target="frontend" edge="1">
          <mxGeometry relative="1" as="geometry" />
        </mxCell>
        <mxCell id="f2w" style="edgeStyle=orthogonalEdgeStyle;endArrow=block;html=1;strokeColor=#6c8ebf;" parent="1" source="frontend" target="wails" edge="1">
          <mxGeometry relative="1" as="geometry" />
        </mxCell>
        <mxCell id="w2b" style="edgeStyle=orthogonalEdgeStyle;endArrow=block;html=1;strokeColor=#9673a6;" parent="1" source="wails" target="backend" edge="1">
          <mxGeometry relative="1" as="geometry" />
        </mxCell>
        <mxCell id="b2stock" style="edgeStyle=orthogonalEdgeStyle;endArrow=block;html=1;strokeColor=#b85450;" parent="1" source="backend" target="stockdata" edge="1">
          <mxGeometry relative="1" as="geometry" />
        </mxCell>
        <mxCell id="b2fund" style="edgeStyle=orthogonalEdgeStyle;endArrow=block;html=1;strokeColor=#b85450;" parent="1" source="backend" target="funddata" edge="1">
          <mxGeometry relative="1" as="geometry" />
        </mxCell>
        <mxCell id="b2ai" style="edgeStyle=orthogonalEdgeStyle;endArrow=block;html=1;strokeColor=#d6b656;" parent="1" source="backend" target="ai" edge="1">
          <mxGeometry relative="1" as="geometry" />
        </mxCell>
        <mxCell id="b2sqlite" style="edgeStyle=orthogonalEdgeStyle;endArrow=block;html=1;strokeColor=#9673a6;" parent="1" source="backend" target="sqlite" edge="1">
          <mxGeometry relative="1" as="geometry" />
        </mxCell>
        <mxCell id="b2notify" style="edgeStyle=orthogonalEdgeStyle;endArrow=block;html=1;strokeColor=#6c8ebf;" parent="1" source="backend" target="notify" edge="1">
          <mxGeometry relative="1" as="geometry" />
        </mxCell>
        <mxCell id="b2task" style="edgeStyle=orthogonalEdgeStyle;endArrow=block;html=1;strokeColor=#82b366;" parent="1" source="backend" target="task" edge="1">
          <mxGeometry relative="1" as="geometry" />
        </mxCell>
        <mxCell id="stock2ext" style="edgeStyle=orthogonalEdgeStyle;endArrow=block;html=1;strokeColor=#b85450;" parent="1" source="stockdata" target="external" edge="1">
          <mxGeometry relative="1" as="geometry" />
        </mxCell>
        <mxCell id="fund2ext" style="edgeStyle=orthogonalEdgeStyle;endArrow=block;html=1;strokeColor=#b85450;" parent="1" source="funddata" target="external" edge="1">
          <mxGeometry relative="1" as="geometry" />
        </mxCell>
        <mxCell id="ext2tushare" style="edgeStyle=orthogonalEdgeStyle;endArrow=block;html=1;strokeColor=#9673a6;" parent="1" source="external" target="tushare" edge="1">
          <mxGeometry relative="1" as="geometry" />
        </mxCell>
        <mxCell id="ext2sina" style="edgeStyle=orthogonalEdgeStyle;endArrow=block;html=1;strokeColor=#9673a6;" parent="1" source="external" target="sina" edge="1">
          <mxGeometry relative="1" as="geometry" />
        </mxCell>
        <mxCell id="ext2scraping" style="edgeStyle=orthogonalEdgeStyle;endArrow=block;html=1;strokeColor=#9673a6;" parent="1" source="external" target="scraping" edge="1">
          <mxGeometry relative="1" as="geometry" />
        </mxCell>
        <mxCell id="ai2llm" style="edgeStyle=orthogonalEdgeStyle;endArrow=block;html=1;strokeColor=#d6b656;" parent="1" source="ai" target="llm" edge="1">
          <mxGeometry relative="1" as="geometry" />
        </mxCell>
        <mxCell id="llm2openai" style="edgeStyle=orthogonalEdgeStyle;endArrow=block;html=1;strokeColor=#9673a6;" parent="1" source="llm" target="openai" edge="1">
          <mxGeometry relative="1" as="geometry" />
        </mxCell>
        <mxCell id="llm2deepseek" style="edgeStyle=orthogonalEdgeStyle;endArrow=block;html=1;strokeColor=#9673a6;" parent="1" source="llm" target="deepseek" edge="1">
          <mxGeometry relative="1" as="geometry" />
        </mxCell>
        <mxCell id="llm2ollama" style="edgeStyle=orthogonalEdgeStyle;endArrow=block;html=1;strokeColor=#9673a6;" parent="1" source="llm" target="ollama" edge="1">
          <mxGeometry relative="1" as="geometry" />
        </mxCell>
        <mxCell id="llm2otherllm" style="edgeStyle=orthogonalEdgeStyle;endArrow=block;html=1;strokeColor=#9673a6;" parent="1" source="llm" target="otherllm" edge="1">
          <mxGeometry relative="1" as="geometry" />
        </mxCell>
        <mxCell id="sqlite2ding" style="edgeStyle=orthogonalEdgeStyle;endArrow=block;html=1;strokeColor=#d6b656;" parent="1" source="sqlite" target="dingding" edge="1">
          <mxGeometry relative="1" as="geometry" />
        </mxCell>
        <mxCell id="notify2tray" style="edgeStyle=orthogonalEdgeStyle;endArrow=block;html=1;strokeColor=#6c8ebf;" parent="1" source="notify" target="tray" edge="1">
          <mxGeometry relative="1" as="geometry" />
        </mxCell>
        <mxCell id="notify2os" style="edgeStyle=orthogonalEdgeStyle;endArrow=block;html=1;strokeColor=#6c8ebf;" parent="1" source="notify" target="osnotify" edge="1">
          <mxGeometry relative="1" as="geometry" />
        </mxCell>
        <mxCell id="task2os" style="edgeStyle=orthogonalEdgeStyle;endArrow=block;html=1;strokeColor=#82b366;" parent="1" source="task" target="osnotify" edge="1">
          <mxGeometry relative="1" as="geometry" />
        </mxCell>
      </root>
    </mxGraphModel>
  </diagram>
</mxfile>
